<svg width="32" height="32" viewBox="0 0 32 32" fill="none" xmlns="http://www.w3.org/2000/svg">
<path d="M29.805 23.78C29.52 24.37 28.3275 24.3325 27.67 24.125C25.99 23.595 24.945 22.15 24.945 22.15L16.285 18.475L13.6325 17.0825C13.6325 17.0825 13.1175 16.2075 14.1475 15.54C15.1775 14.8725 15.9 14.8225 15.9 14.8225L18.885 16.7225C18.885 16.7225 20.8125 15.2225 22.77 14.995C24.64 14.78 26.9675 16.3 27.58 19.17C28.0775 21.4975 28.865 22.3175 29.1025 22.62C29.34 22.925 30.05 23.275 29.805 23.78Z" fill="#FF8E00"/>
<path d="M19.43 8.03754C18.6625 5.49754 17.6925 2.52504 16.2275 1.50754C14.93 0.607542 13.6675 0.770042 13.0675 1.16254C13.0675 1.16254 11.985 1.60504 11.7 2.72254C11.23 4.55754 11.8475 6.76004 12.25 9.03504C12.6525 11.31 12.8625 12.875 13.045 14.7025C13.0625 14.8675 16.085 20.2475 16.085 20.2475L18.4975 21.54C18.4975 21.54 20.34 17.555 20.3125 16.9925C20.2875 16.4275 19.99 9.89254 19.43 8.03754Z" fill="#FFE4B4"/>
<path d="M13.1375 16.7349C13.105 17.3424 14.57 22.1849 14.57 22.1849L18.5 21.5349C18.5 21.5349 21.2875 19.8849 21.365 16.8924C21.485 12.3799 20.7125 10.2549 20.1525 8.39993C19.3825 5.86493 17.6675 2.52493 16.215 1.48993C15.3625 0.882434 14.4175 0.792434 14.03 0.867434C14.03 0.867434 16.61 2.88743 17.915 6.34243C19.22 9.79743 19.5275 13.7899 19.5275 13.7899C19.5275 13.7899 18.5675 14.4974 16.3025 14.8224C14.5525 15.0749 13.0425 14.6474 13.0425 14.6474C13.0425 14.6474 13.18 15.9649 13.1375 16.7349Z" fill="#FFE265"/>
<path d="M21.3325 20.9376L19.76 17.6526L19.845 16.4826C19.845 16.4826 20.18 15.5001 18.0875 17.0876C17.1175 17.8226 16.5325 19.1776 16.5325 19.1776C16.5325 19.1776 16.2375 18.4476 15.2025 17.4826C14.2825 16.6276 13.045 16.2126 13.045 16.2126C13.045 16.2126 10.475 15.7126 10.195 15.9301C8.38251 17.3451 7.05751 19.0676 7.05751 19.0676L5.72501 24.1051L3.51001 25.4626C3.51001 25.4626 4.11501 26.3476 4.99001 26.0176C5.67251 25.7601 6.51751 24.9876 6.97251 24.0151C7.59751 22.6776 8.91001 20.1476 9.57751 19.3476C10.8675 17.8076 12.1325 17.2451 13.075 17.6926C14.1475 18.2001 13.29 23.2651 13.29 23.2651L6.39501 29.0676L6.27751 29.8576C6.27751 29.8576 7.28001 30.8201 10.0425 30.7301C12.805 30.6401 16.5 29.6176 18.8375 26.4301C20.9 23.6201 21.3325 20.9376 21.3325 20.9376Z" fill="#FFA726"/>
<path d="M15.895 21.2399C15.955 22.6274 15.09 24.7299 13.09 26.4824C11.0925 28.2349 8.9825 28.8149 7.6725 28.9149C6.7225 28.9874 6.44 28.4449 6.44 28.4449C6.44 28.4449 8.355 26.6824 9.7775 25.2699C11.1275 23.9274 12.5975 21.1074 12.9175 19.8099C13.2375 18.5124 12.9475 17.6399 12.9475 17.6399C12.9475 17.6399 13.5675 17.8124 14.48 18.7274C15.365 19.6149 15.8625 20.4699 15.895 21.2399Z" fill="#FFB803"/>
<path d="M7.36251 29.6849C7.15501 30.1674 6.44251 30.1874 6.13251 29.9199C5.84001 29.6674 5.55501 29.1649 5.85001 28.6024C6.04501 28.2324 6.68501 28.1299 7.04501 28.4174C7.40501 28.7049 7.55001 29.2474 7.36251 29.6849Z" fill="#875B54"/>
<path d="M5.93997 24.46C5.11997 25.5975 4.29747 25.77 3.95747 25.8075C3.65997 25.8425 3.33497 25.4625 3.37247 25.1125C3.40997 24.7625 3.98497 24.27 4.05497 23.195C4.12497 22.12 4.03997 18.1775 6.22747 15.9125C7.76997 14.3175 9.65997 14.8675 10.88 15.29C12.255 15.765 13.0475 16.215 13.0475 16.215C13.0475 16.215 11.9225 16.1375 9.98247 17.6675C8.85497 18.5575 8.19247 19.78 7.56747 21.1825C7.11747 22.1975 6.51747 23.66 5.93997 24.46Z" fill="#FEE4B4"/>
<path d="M27.75 27.395C27.52 27.855 26.9575 28.14 26.46 28.1175C25.4075 28.0725 24.4475 27.53 23.385 26.16C21.8825 24.22 20.575 19.565 19.595 18.325C18.9325 17.4875 18.1075 17.0725 18.1075 17.0725C18.1075 17.0725 18.5625 16.6875 19.0175 16.45C19.4725 16.2125 20.5725 16.325 20.5725 16.325L25.2675 23.87L27.75 27.395Z" fill="#FEB804"/>
<path d="M25.0975 17.1149C26.1275 18.5874 26.2625 19.8799 26.4175 21.1999C26.5575 22.3924 26.845 24.8999 27.2775 25.7174C27.7125 26.5349 28.135 27.0674 27.6675 27.5649C27.2 28.0624 25.825 27.8849 24.8375 26.8099C24.0425 25.9424 23.6025 24.9974 23.005 23.6099C22.4075 22.2224 21.5275 18.9474 20.385 17.4674C19.655 16.5224 18.9275 16.4949 18.9275 16.4949C18.9275 16.4949 19.89 15.7099 21.7275 15.6899C23.375 15.6724 24.24 15.8899 25.0975 17.1149Z" fill="#FFE4B4"/>
</svg>
