<svg width="32" height="32" viewBox="0 0 32 32" fill="none" xmlns="http://www.w3.org/2000/svg">
<path d="M7 26V7H7.265L17.943 10.858L18 11L18.127 11.185V29.797L18 30L7 26Z" fill="#86D72F"/>
<path d="M7 7L14 5L25 9V28L18 30V11L7 7Z" fill="#C3EF3C"/>
<path d="M21.5 12.5L18 11L25 9L23 12C22.656 12.54 22.262 12.803 21.5 12.5Z" fill="#D3F093"/>
<path d="M11.57 12.7501C12.19 12.9701 12.75 13.6301 13.04 14.4701L13.23 15.0201C12.95 15.0101 12.79 14.9501 12.75 14.9401C12.7 14.9201 12.42 14.8101 11.97 14.4501C11.8 14.3101 11.57 14.1701 11.31 14.0801C11.03 13.9801 10.71 13.9301 10.39 13.9901C10.19 13.6601 10.03 13.2801 9.96001 12.8701L9.82001 12.1201L11.57 12.7501Z" fill="#008463"/>
<path d="M14.316 2.051C14.1657 2.00093 14.0056 1.9873 13.8489 2.01123C13.6923 2.03516 13.5436 2.09597 13.4151 2.18865C13.2866 2.28133 13.1819 2.40323 13.1097 2.54429C13.0376 2.68535 13 2.84154 13 3V6.5C13 6.5 13.5 6.75 14 6.75C14.5 6.75 15 6.5 15 6.5V4.387L16.684 4.949C16.9357 5.03281 17.2104 5.0132 17.4476 4.89449C17.6848 4.77578 17.8652 4.56769 17.949 4.316C18.0328 4.06431 18.0132 3.78963 17.8945 3.5524C17.7758 3.31516 17.5677 3.13481 17.316 3.051L14.316 2.051ZM16.28 17.5C15.67 16.01 14.84 15.35 14.19 15.12C13.93 15.03 13.7 15 13.54 15.01C13.43 15.02 13.33 15.02 13.24 15.02C12.96 15.01 12.79 14.96 12.75 14.94L12.731 14.931C12.653 14.896 12.386 14.775 11.98 14.45C11.81 14.31 11.58 14.17 11.32 14.08C11.04 13.98 10.72 13.93 10.4 13.99C9.97999 14.07 9.54999 14.34 9.17999 14.93C8.18999 16.5 8.71 20.04 9.77 21.74C10.23 22.46 10.66 22.78 11.08 22.93C11.361 23.034 11.638 23.06 11.904 23.084C12.149 23.107 12.385 23.129 12.61 23.21C12.844 23.293 13.083 23.445 13.33 23.601C13.59 23.767 13.858 23.938 14.14 24.04C14.56 24.19 15 24.19 15.47 23.8C16.57 22.89 17.2 19.76 16.28 17.5Z" fill="#F8312F"/>
<path d="M17.14 2.99292L17.316 3.05092C17.5352 3.12384 17.7224 3.27039 17.8457 3.46567C17.9691 3.66096 18.0211 3.89293 17.9928 4.12219C17.9645 4.35145 17.8578 4.56384 17.6906 4.7233C17.5235 4.88276 17.3063 4.97944 17.076 4.99692C16.621 4.95992 16.262 4.52592 16.262 3.99692C16.262 3.44192 16.655 2.99292 17.14 2.99292Z" fill="#990838"/>
</svg>
