<svg width="32" height="32" viewBox="0 0 32 32" fill="none" xmlns="http://www.w3.org/2000/svg">
<path d="M20.8725 24.76C20.4175 24.85 9.62501 26.2175 9.62501 26.2175C9.62501 26.2175 9.39751 28.13 9.71501 28.7675C10.0325 29.405 12.0825 30.8625 15.9525 30.8625C19.8225 30.8625 21.9625 29.6325 22.2825 28.905C22.6025 28.1775 22.145 25.08 22.145 25.08L20.8725 24.76Z" fill="#77A3AB"/>
<path d="M8.51751 10.71L1.17001 14.1125C1.17001 14.1125 1.75751 21.035 6.35251 24.825C12.965 30.2775 22.865 28.6525 27.4275 23.3175C31.5925 18.4475 30.83 11.9875 30.83 11.9875L8.51751 10.71Z" fill="#A7D0D6"/>
<path d="M0.987498 12.6251C0.782498 15.5926 3.7375 19.2201 15.92 19.3576C28.625 19.5001 33.1275 13.2426 30.2825 9.97257C27.4375 6.70257 20.5175 6.32257 15.73 6.37007C10.9425 6.41757 1.32 7.80757 0.987498 12.6251Z" fill="#77A3AC"/>
<path d="M2.59001 13.8351C2.59001 13.8351 2.45751 13.2176 2.67251 12.5726C2.88751 11.9276 3.27251 11.7401 3.32751 11.5326C3.38251 11.3251 2.85501 10.2276 3.74501 8.78506C4.63501 7.34256 5.21251 7.64756 5.45751 7.34256C5.70251 7.03756 5.69001 6.00756 6.79501 5.02506C7.90001 4.04256 8.91251 4.13506 8.91251 4.13506C8.91251 4.13506 9.40501 2.84506 10.6 2.35506C11.795 1.86506 13 2.16756 13 2.16756C13 2.16756 14.075 1.18506 15.58 1.15506C17.085 1.12506 17.515 1.55506 17.8525 1.58506C18.19 1.61506 18.9875 1.21756 20.4 1.73756C21.8125 2.26006 21.8325 3.05256 22.15 3.18006C22.4675 3.30756 23.3175 3.05756 24.6075 4.10006C25.8975 5.14256 25.685 5.62256 25.8675 5.82006C26.0475 6.01756 27.26 6.02506 27.925 7.72256C28.415 8.97256 28.1525 9.89006 28.2025 10.0251C28.2525 10.1601 28.9475 10.8826 29.2475 11.6226C29.525 12.3126 29.6475 13.2801 29.6475 13.2801C29.6475 13.2801 29.0025 14.4101 27.44 15.4376C25.7875 16.5251 7.23001 16.5726 6.00001 16.1801C3.87501 15.5076 2.59001 13.8351 2.59001 13.8351Z" fill="#CDCBC0"/>
<path d="M4.61749 11.9625C4.61749 11.9625 4.47999 10.4175 4.89499 9.5675C5.47749 8.37 6.61499 8.2475 6.61499 8.2475C6.61499 8.2475 6.74249 6.8825 7.71999 6.13C8.91749 5.21 9.37749 5.455 9.77749 5.085C10.1775 4.7175 10.4225 4.0725 11.405 3.6425C12.3875 3.2125 13.185 3.49 13.5225 3.335C13.86 3.18 14.4 2.55 15.475 2.4775C16.8575 2.385 16.9475 2.92 17.74 3.005C18.3025 3.065 18.7225 2.7325 19.92 3.1C21.1175 3.4675 21.1575 4.1925 21.5375 4.44C21.9175 4.6875 22.855 4.46 23.87 5.2375C24.79 5.9425 24.78 6.595 25.0375 6.865C25.2925 7.135 26.05 7.2325 26.6025 8.6775C27.0625 9.88 26.7225 10.235 26.8475 10.6125C26.9725 10.99 27.6575 11.385 28.075 12.515C28.5975 13.9275 28.4425 14.665 28.4425 14.665C28.4425 14.665 25.925 18.0175 14.75 17.8875C6.70499 17.795 3.81999 15.0025 3.81999 15.0025C3.81999 15.0025 3.69749 13.4975 4.00499 12.915C4.31249 12.3325 4.61749 11.9625 4.61749 11.9625Z" fill="white"/>
<path d="M15.2925 17.0625C15.54 17.62 16.515 17.7125 17.335 16.795C18.07 15.97 17.64 14.7 16.8525 14.8075C16.135 14.905 16.37 15.65 16.0275 15.935C15.685 16.22 15.0775 16.5775 15.2925 17.0625ZM19.125 13.66C19.3375 14.115 20.6125 14.0175 21.095 13.1775C21.5775 12.335 21.5075 11.105 20.8075 11.1175C19.895 11.135 20.235 12.0675 19.9125 12.3525C19.59 12.6375 18.7675 12.89 19.125 13.66ZM24.05 9.02001C23.525 9.19001 23.8 9.88001 23.585 10.345C23.37 10.81 22.7975 11.33 23.245 11.725C23.6925 12.12 24.7125 11.475 24.8575 10.49C24.9975 9.50501 24.605 8.84251 24.05 9.02001ZM21.835 15.25C21.5 15.7875 20.8675 15.5175 20.7425 16.075C20.6175 16.63 21.9075 16.8275 22.6225 16.165C23.34 15.5025 23.1425 14.375 22.695 14.285C22.2475 14.1925 22.1025 14.82 21.835 15.25ZM19.815 9.11501C20.11 9.44501 21.2925 9.09501 21.685 7.91751C22.0775 6.74001 21.3025 5.98001 20.78 6.24751C20.2575 6.51501 20.63 7.08251 20.505 7.45001C20.38 7.81751 19.2375 8.47001 19.815 9.11501Z" fill="#D4D4D4"/>
</svg>
