<svg width="32" height="32" viewBox="0 0 32 32" fill="none" xmlns="http://www.w3.org/2000/svg">
<path d="M15.8575 1.12746C23.7775 1.10996 28.775 13.9925 26.8025 22.1575C25.0575 29.3875 20.045 30.885 16.0325 30.885C12.02 30.885 7.14749 28.94 5.26249 22.4375C3.08249 14.9075 8.46749 1.14496 15.8575 1.12746Z" fill="#F2A05B"/>
<path d="M9.81499 7.2574C8.86499 8.7749 7.90749 10.6849 7.70249 12.2774C7.32749 15.2099 9.48499 15.5399 10.2375 14.0849C10.99 12.6299 11.76 11.1574 12.9825 9.2049C14.6725 6.5074 17.44 4.6999 16.08 3.5274C14.72 2.3549 11.81 4.0674 9.81499 7.2574Z" fill="#FECC88"/>
<path d="M22.85 11.4099C23.1289 11.4099 23.355 11.1793 23.355 10.8949C23.355 10.6105 23.1289 10.3799 22.85 10.3799C22.5711 10.3799 22.345 10.6105 22.345 10.8949C22.345 11.1793 22.5711 11.4099 22.85 11.4099Z" fill="#D47858"/>
<path d="M23.4179 23.7215C23.5329 23.4419 23.4005 23.1224 23.1221 23.0079C22.8437 22.8934 22.5248 23.0272 22.4098 23.3069C22.2948 23.5865 22.4272 23.9061 22.7056 24.0205C22.9839 24.135 23.3028 24.0012 23.4179 23.7215Z" fill="#D47858"/>
<path d="M8.69848 25.9129C8.80562 25.6524 8.68131 25.3544 8.42082 25.2473C8.16033 25.1401 7.8623 25.2644 7.75516 25.5249C7.64801 25.7854 7.77233 26.0834 8.03282 26.1906C8.29331 26.2977 8.59134 26.1734 8.69848 25.9129Z" fill="#D47858"/>
<path d="M24.7233 16.2405C25.0997 16.0455 25.2657 15.6191 25.0942 15.2881C24.9227 14.9571 24.4786 14.8469 24.1022 15.0419C23.7259 15.2369 23.5598 15.6633 23.7313 15.9943C23.9029 16.3253 24.347 16.4355 24.7233 16.2405Z" fill="#D47858"/>
<path d="M17.441 22.951C17.8173 22.756 17.9834 22.3295 17.8119 21.9985C17.6404 21.6676 17.1962 21.5573 16.8199 21.7523C16.4435 21.9474 16.2775 22.3738 16.449 22.7048C16.6205 23.0358 17.0646 23.146 17.441 22.951Z" fill="#D47858"/>
<path d="M16.7258 26.5021C17.0039 26.1535 16.993 25.6824 16.7015 25.45C16.4101 25.2175 15.9484 25.3118 15.6703 25.6604C15.3923 26.0091 15.4031 26.4802 15.6946 26.7126C15.9861 26.945 16.4477 26.8508 16.7258 26.5021Z" fill="#D47858"/>
<path d="M13.744 27.3284C14.0724 26.959 14.0493 26.4023 13.6923 26.0848C13.3353 25.7674 12.7796 25.8095 12.4512 26.1788C12.1227 26.5482 12.1459 27.105 12.5028 27.4224C12.8598 27.7399 13.4155 27.6978 13.744 27.3284Z" fill="#D47858"/>
</svg>
