<svg width="32" height="32" viewBox="0 0 32 32" fill="none" xmlns="http://www.w3.org/2000/svg">
<path d="M26 23C26 24.3261 25.4732 25.5979 24.5355 26.5355C23.5979 27.4732 22.3261 28 21 28H11C9.67392 28 8.40215 27.4732 7.46447 26.5355C6.52678 25.5979 6 24.3261 6 23V20H26V23ZM23 2C23.2652 2 23.5196 2.10536 23.7071 2.29289C23.8946 2.48043 24 2.73478 24 3C24 3.26522 23.8946 3.51957 23.7071 3.70711C23.5196 3.89464 23.2652 4 23 4H22V10.1C23.1294 10.3305 24.1444 10.9442 24.8733 11.8371C25.6022 12.73 26.0002 13.8473 26 15V18H6V15C5.99976 13.8473 6.39778 12.73 7.12669 11.8371C7.8556 10.9442 8.87064 10.3305 10 10.1V4H9C8.73478 4 8.48043 3.89464 8.29289 3.70711C8.10536 3.51957 8 3.26522 8 3C8 2.73478 8.10536 2.48043 8.29289 2.29289C8.48043 2.10536 8.73478 2 9 2H23ZM12 10H15V8C14.7348 8 14.4804 7.89464 14.2929 7.70711C14.1054 7.51957 14 7.26522 14 7C14 6.73478 14.1054 6.48043 14.2929 6.29289C14.4804 6.10536 14.7348 6 15 6H17C17.2652 6 17.5196 6.10536 17.7071 6.29289C17.8946 6.48043 18 6.73478 18 7C18 7.26522 17.8946 7.51957 17.7071 7.70711C17.5196 7.89464 17.2652 8 17 8V10H20V4H12V10Z" fill="#0FB847"/>
</svg>
