<svg width="32" height="32" viewBox="0 0 32 32" fill="none" xmlns="http://www.w3.org/2000/svg">
<path opacity="0.8" d="M16 1C11.05 1 7 2.9 7 5.2C7 5.2 7 19.2 10.85 27.05C11.2 29.3 13.35 31 16 31C18.6 31 20.75 29.3 21.15 27.05C25 19.2 25 5.2 25 5.2C25 2.9 20.95 1 16 1Z" fill="#A1B8C7"/>
<path opacity="0.3" d="M16 29.15C13.85 29.15 11.95 28.3 10.85 27.05C11.2 29.3 13.35 31 16 31C18.6 31 20.75 29.3 21.15 27.05C20.05 28.3 18.15 29.15 16 29.15Z" fill="#555E63"/>
<path opacity="0.3" d="M16 29.5001C14.3 29.5001 12.8 29.0501 11.95 28.3501C12.25 29.5501 13.95 30.5001 16 30.5001C18.05 30.5001 19.75 29.5501 20.05 28.3501C19.2 29.0501 17.7 29.5001 16 29.5001Z" fill="#555E63"/>
<path d="M16 7.1001C11.7 7.1001 8.5 8.5501 8.5 10.7001C8.5 10.7001 8.9 19.9501 11.55 26.2001C12.5 27.3501 14.15 28.1001 16 28.1001C17.85 28.1001 19.5 27.3501 20.45 26.2001C23.1 19.9501 23.5 10.7001 23.5 10.7001C23.5 8.5501 20.3 7.1001 16 7.1001Z" fill="white"/>
<path d="M16 7.1001C11.4 7.1001 8.5 8.6001 8.5 10.7501C8.5 12.9001 11.65 14.7501 16 14.7501C20.35 14.7501 23.5 12.9001 23.5 10.7501C23.5 8.6001 20.6 7.1001 16 7.1001Z" fill="#F2ECE3"/>
<path d="M18.9 15.0502C18.3 15.0502 17.8 14.7502 17.75 14.3502C17.75 14.1002 17.85 13.9002 18.1 13.7002C18.3 13.5502 18.6 13.4502 18.9 13.4502H19.05C19.65 13.4502 20.15 13.7502 20.2 14.1502C20.2 14.4002 20.1 14.6002 19.85 14.8002C19.65 14.9502 19.35 15.0502 19.05 15.0502C19 15.0002 18.95 15.0502 18.9 15.0502Z" fill="#F2ECE3"/>
<path d="M20.8 14.65C20.55 14.65 20.3 14.55 20.2 14.35C20.1 14.2 20.1 14 20.2 13.8C20.3 13.65 20.45 13.5 20.6 13.4C20.75 13.3 20.95 13.3 21.1 13.3C21.35 13.3 21.6 13.4 21.7 13.6C21.9 13.9 21.7 14.35 21.3 14.55C21.1 14.6 20.95 14.65 20.8 14.65ZM16.75 15.25C16.3 15.25 16 15 15.95 14.7C15.95 14.5 16 14.35 16.2 14.2C16.35 14.1 16.55 14 16.75 14H16.85C17.3 14 17.6 14.25 17.65 14.55C17.7 14.9 17.35 15.2 16.9 15.25H16.75ZM15.1 15.4C14.9 15.4 14.75 15.35 14.65 15.2C14.55 15.1 14.5 14.9 14.55 14.75C14.6 14.6 14.65 14.45 14.8 14.4C14.95 14.3 15.1 14.25 15.25 14.25C15.45 14.25 15.6 14.3 15.7 14.45C15.9 14.7 15.85 15.05 15.55 15.25C15.4 15.35 15.25 15.4 15.1 15.4Z" fill="#F2ECE3"/>
<path d="M22.35 12.8C22.2 12.65 21.9 12.65 21.7 12.8C21.6 12.9 21.55 13 21.5 13.1C21.4 13.05 21.25 13 21.1 13C20.9 13 20.65 13.05 20.45 13.15C20.3 13.25 20.2 13.35 20.1 13.45C19.85 13.25 19.5 13.1 19.05 13.1H18.85C18.5 13.15 18.15 13.25 17.9 13.4C17.7 13.55 17.6 13.7 17.55 13.85C17.35 13.7 17.1 13.65 16.85 13.65H16.7C16.45 13.7 16.2 13.8 16 13.95C15.9 14 15.85 14.1 15.8 14.2C15.65 14.05 15.45 13.95 15.2 13.95C15 13.95 14.75 14 14.6 14.15C14.5 14.2 14.45 14.3 14.4 14.35C14.4 14.3 14.35 14.3 14.35 14.25C14.2 14.1 13.9 14.1 13.7 14.25L13.6 14.35C13.6 14.3 13.55 14.25 13.55 14.2C13.4 14.05 13.15 14.05 12.95 14.2C12.75 14.35 12.7 14.6 12.85 14.75C13 14.9 13.25 14.9 13.45 14.75C13.5 14.75 13.5 14.7 13.5 14.7C13.5 14.7 13.55 14.85 13.55 14.9C13.7 15.05 14 15.05 14.2 14.9C14.2 15.1 14.25 15.25 14.4 15.4C14.55 15.6 14.8 15.7 15.05 15.7C15.25 15.7 15.5 15.65 15.65 15.5C15.75 15.45 15.85 15.35 15.9 15.25C16.1 15.45 16.4 15.55 16.75 15.55H16.9C17.3 15.5 17.65 15.3 17.8 15C18.05 15.2 18.45 15.35 18.85 15.35H19.05C19.4 15.3 19.75 15.2 20 15.05C20.1 15 20.15 14.9 20.2 14.85C20.35 14.95 20.55 15 20.75 15C20.95 15 21.2 14.95 21.4 14.85C21.95 14.6 22.15 14.05 21.95 13.65C22.05 13.65 22.15 13.6 22.2 13.55C22.45 13.25 22.5 13 22.35 12.8ZM15.35 15.05C15.25 15.1 15.2 15.15 15.1 15.15C15 15.15 14.95 15.1 14.85 15.05C14.75 14.95 14.8 14.75 14.95 14.6C15.05 14.55 15.1 14.5 15.2 14.5C15.3 14.5 15.35 14.55 15.45 14.6C15.55 14.75 15.5 14.95 15.35 15.05ZM16.85 15H16.75C16.5 15 16.25 14.85 16.25 14.7C16.2 14.5 16.45 14.3 16.75 14.25H16.85C17.1 14.25 17.35 14.4 17.35 14.55C17.4 14.75 17.15 14.95 16.85 15ZM19.05 14.75H18.9C18.45 14.75 18.05 14.55 18.05 14.25C18 13.95 18.4 13.65 18.95 13.6H19.1C19.55 13.6 19.95 13.8 19.95 14.1C19.95 14.45 19.55 14.7 19.05 14.75ZM21.15 14.3C21.05 14.35 20.9 14.4 20.8 14.4C20.65 14.4 20.5 14.35 20.45 14.25C20.35 14.05 20.5 13.8 20.75 13.65C20.85 13.6 21 13.55 21.1 13.55C21.25 13.55 21.4 13.6 21.45 13.7C21.55 13.85 21.4 14.15 21.15 14.3Z" fill="white"/>
<path opacity="0.3" d="M16 1C11.05 1 7 2.9 7 5.2C7 7.5 11.05 9.4 16 9.4C20.95 9.4 25 7.5 25 5.2C25 2.9 20.95 1 16 1ZM16 8.3C11.45 8.3 7.75 6.8 7.75 4.95C7.75 3.1 11.45 1.35 16 1.35C20.55 1.35 24.25 3.1 24.25 4.95C24.25 6.8 20.55 8.3 16 8.3Z" fill="#555E63"/>
</svg>
