<svg width="32" height="32" viewBox="0 0 32 32" fill="none" xmlns="http://www.w3.org/2000/svg">
<path d="M15.9675 10.9274C15.9675 10.9274 1.32998 12.4149 1.38998 13.8524C1.43748 15.0024 1.11498 18.9374 4.40998 22.9624C6.56998 25.5999 10.355 28.1424 16.5425 28.1424C22.6275 28.1424 25.97 25.3324 28.0525 22.2924C30.7275 18.3824 30.595 14.7149 30.595 13.8049C30.5925 11.9824 19.18 10.2099 15.9675 10.9274Z" fill="#D5D5D5"/>
<path d="M16.725 7.64746C16.725 7.64746 15.7375 6.99996 14.835 7.08246C13.9325 7.16746 13.51 7.70246 13.51 7.70246L10.6825 14.7375L13.69 18.0925L15.6525 19.4525L19.45 19.3575L21.1275 7.67996L16.725 7.64746Z" fill="#307D31"/>
<path d="M16.915 9.3649C16.915 9.3649 16.2275 8.2074 16.145 7.2174C16.0625 6.2274 16.8375 5.6574 17.25 5.6574C18.26 5.6574 18.375 6.2824 18.98 6.2274C19.585 6.1724 19.78 5.6374 19.9425 4.8224C20.1075 3.9924 20.82 3.5249 21.4675 3.9374C22.09 4.3349 21.87 5.5099 21.87 5.5099C21.87 5.5099 22.365 4.9049 22.9175 5.3449C23.4075 5.7374 23.2475 6.9424 23.2475 6.9424C23.2475 6.9424 24.3225 5.7024 25.23 6.3099C26.1375 6.9174 25.45 9.0074 25.45 9.0074L25.1475 10.8799L19.9725 8.8974C19.9725 8.8974 19.67 8.1824 18.5675 8.2649C17.4675 8.3474 16.915 9.3649 16.915 9.3649ZM11.3825 14.3224C11.3825 14.3224 12.3075 12.4449 14.32 13.0724C16.43 13.7299 16.0475 15.7624 16.0475 15.7624C16.0475 15.7624 16.5875 15.3674 17.22 15.3124C17.8525 15.2574 18.625 15.3674 18.625 15.3674L18.525 14.2774C18.525 14.2774 17.1825 14.4549 16.3675 13.4949C15.2725 12.2024 16.01 10.7149 16.01 10.7149L16.2025 9.7799L14.275 8.5399L12.9525 6.8324C12.9525 6.8324 12.5125 5.8699 11.3275 5.8149C10.1425 5.7599 9.58501 6.5949 9.58501 6.5949C9.58501 6.5949 7.04751 5.8624 5.75251 6.9624C4.87751 7.7074 5.10501 8.9274 5.10501 8.9274C5.10501 8.9274 4.49001 9.2924 3.42751 8.3999C2.95501 8.0024 2.03001 8.3049 1.89251 9.0499C1.75501 9.7924 2.05001 10.7199 2.05001 10.7199L1.19751 11.2424L4.08751 14.2149L11.3825 14.3224Z" fill="#58A12F"/>
<path d="M17.7975 13.6601C17.7975 13.6601 16.625 13.7276 15.7325 11.6501C15.1975 10.4051 15.5725 7.99009 16.835 8.23509C17.825 8.42759 17.6875 10.1076 18.3775 10.2451C18.72 10.3126 19.48 8.51009 21.1025 8.40009C22.4225 8.31009 24.1575 10.0526 24.1575 10.0526C24.1575 10.0526 24.9275 9.50259 25.01 9.31009C25.0925 9.11759 25.23 8.37509 26.085 8.43009C27.0325 8.49009 26.91 9.53259 26.91 9.53259C26.91 9.53259 28.04 9.09259 28.865 9.50509C29.7525 9.95009 29.69 10.8001 29.69 10.8001C29.69 10.8001 30.4875 9.94759 31.1225 10.3876C31.7575 10.8276 29.9675 14.3401 28.26 16.1026C26.5525 17.8651 24.3425 17.7476 24.3425 17.7476L17.7975 13.6601Z" fill="#86C82C"/>
<path d="M6.97999 8.00488L6.77249 7.60238C6.77249 7.60238 7.40499 6.78488 8.81499 7.00988C10.3625 7.25738 10.5175 8.33488 10.5175 8.33488C10.5175 8.33488 9.71999 8.63738 9.69499 8.59988C9.66999 8.56238 8.92249 7.77738 8.92249 7.77738L7.44249 7.82738L6.97999 8.00488Z" fill="#D2608C"/>
<path d="M7.12749 8.30989C7.12749 8.30989 7.84749 7.96989 8.55499 8.12239C9.26249 8.27489 9.42749 8.84239 9.42749 8.84239L10.085 8.57739C10.085 8.57739 9.66999 7.68739 8.69249 7.51489C7.61999 7.32489 6.95999 7.97239 6.95999 7.97239L7.12749 8.30989Z" fill="white"/>
<path d="M6.89499 9.34496C6.89499 9.34496 9.19499 8.69246 10.075 8.25746C11.485 7.55996 12.71 6.93246 13.0675 6.69246C13.2575 6.56496 13.39 6.41996 13.645 6.47246C13.9 6.52496 16.1925 11.085 12.455 12.745C10.9425 13.4175 9.31749 13.645 9.31749 13.645L6.98249 11.6725L6.89499 9.34496Z" fill="#FE2A19"/>
<path d="M7.6925 10.0074C7.6375 10.1699 8.8675 12.5124 11.45 11.5549C13.88 10.6549 13.0825 7.77994 12.93 7.67744C12.83 7.61244 11.6775 8.24994 10.4325 8.80494C9.1325 9.38244 7.7375 9.87744 7.6925 10.0074Z" fill="#CB1C35"/>
<path d="M9.5375 10.465C9.9625 10.6325 10.525 10.4575 11.0925 10.2125C11.615 9.98751 12.26 9.63751 12.2775 9.26001C12.295 8.88501 11.3775 8.46501 11.1375 8.47251C10.9 8.48251 9.83 8.95251 9.6875 9.18001C9.545 9.41001 9.2275 10.3425 9.5375 10.465Z" fill="#FF5F5D"/>
<path d="M9.25001 10.455C9.01001 10.3925 8.79001 10.63 8.73001 10.9075C8.65251 11.27 9.00251 11.3475 9.16251 11.215C9.41001 11.01 9.47751 10.5125 9.25001 10.455ZM10.54 10.65C10.3025 10.6575 10.2125 11.0375 10.295 11.31C10.4 11.6675 10.7575 11.5725 10.82 11.375C10.935 11.025 10.775 10.6425 10.54 10.65ZM11.8225 10.0175C11.65 10.17 11.8175 10.51 12.0475 10.6625C12.3475 10.8625 12.555 10.5725 12.48 10.385C12.3475 10.0525 11.9925 9.86746 11.8225 10.0175ZM12.2825 8.92746C12.295 9.14996 12.6475 9.23996 12.895 9.16746C13.22 9.07246 13.1225 8.73496 12.94 8.67246C12.615 8.55996 12.27 8.70746 12.2825 8.92746Z" fill="#F7CA76"/>
<path d="M11.94 14.8024C12.1675 14.1874 13.36 13.2024 14.62 14.1099C15.8475 14.9949 15.285 16.4499 14.76 16.9274C14.19 17.4474 13.055 17.5999 12.4175 16.8949C11.78 16.1899 11.635 15.6249 11.94 14.8024Z" fill="#E9FCAE"/>
<path d="M4.58001 15.6499C4.64501 15.5699 4.80751 15.3649 4.70751 15.0049C4.54001 14.4024 4.11501 13.6599 3.30251 12.7024C1.88501 11.0324 1.18251 10.5974 0.732514 11.0724C0.255014 11.5774 0.930014 12.7574 1.82751 13.8399C2.72501 14.9224 4.17251 16.1549 4.58001 15.6499Z" fill="#307D31"/>
<path d="M4.10249 14.6251C3.96499 14.7376 3.21749 14.2176 2.44499 13.3051C1.67249 12.3926 1.10499 11.6251 1.34999 11.4376C1.65999 11.2001 2.78249 12.3776 3.07749 12.7851C3.37249 13.1926 4.40999 14.3726 4.10249 14.6251Z" fill="#E9FCAE"/>
<path d="M20.335 9.86258L20.7575 9.45508C20.7575 9.45508 22.125 11.2726 23.2 10.4651C24.4925 9.49508 23.215 7.92258 23.215 7.92258L23.7775 7.64258L24.5225 8.79508L24.5775 10.4251L23.3 11.5351C23.3 11.5351 21.895 11.5351 21.7825 11.3676C21.67 11.1976 20.335 9.86258 20.335 9.86258Z" fill="white"/>
<path d="M19.9 10.2426L20.4575 9.74759C20.4575 9.74759 22.035 11.9851 23.61 10.8226C25.12 9.70509 23.7325 7.66759 23.7325 7.66759L24.29 7.34009C24.29 7.34009 25.395 8.58759 24.9575 10.2201C24.605 11.5301 23.2975 12.1426 22.23 11.9176C20.555 11.5626 19.9 10.2426 19.9 10.2426Z" fill="#D2608C"/>
<path d="M22.23 13.12C22.23 13.12 22.275 12.08 23.73 10.92C25.185 9.76003 26.4075 10.0775 26.815 10.425C27.225 10.775 27.7125 12.06 26.605 13.455C26.075 14.12 25.665 14.215 25.0875 14.1625C24.4125 14.1 23.24 13.515 23.24 13.515L22.23 13.12Z" fill="#2C7B2E"/>
<path d="M26.2625 10.8876C25.655 10.4851 24.4025 11.1226 23.7575 11.7251C23.07 12.3701 22.88 13.1001 22.88 13.1001L24.3825 13.6301C24.3825 13.6301 25.2275 13.6101 25.7925 12.9651C26.635 12.0051 26.7175 11.1901 26.2625 10.8876Z" fill="#E0FEAC"/>
<path d="M18.1075 11.4326C17.8975 11.5376 17.1125 12.4576 17.345 14.2876C17.5875 16.1801 18.94 17.4251 21.18 17.5876C24.0475 17.7926 25.66 15.6926 25.88 15.3126C26.1 14.9326 26.54 14.0976 26.2325 13.8201C25.925 13.5426 24.0075 13.4251 21.7975 12.7376C19.315 11.9626 18.575 11.1976 18.1075 11.4326Z" fill="#FE2A19"/>
<path d="M19.1 12.4975C18.7875 12.6525 18.48 15.43 20.9325 16.2425C23.045 16.9425 24.615 14.6175 24.455 14.3075C24.295 13.9975 23.3425 14.1025 21.77 13.545C20.195 12.985 19.345 12.3775 19.1 12.4975Z" fill="#CB1C35"/>
<path d="M20.17 13.9726C20.2425 14.3401 20.585 14.7876 21.3625 15.1201C21.98 15.3851 22.6425 15.2676 22.9225 15.1501C23.2025 15.0326 23.095 13.9176 22.9675 13.8851C22.57 13.7826 21.365 13.3701 20.9975 13.2226C20.76 13.1276 20.0925 13.5776 20.17 13.9726Z" fill="#FE6261"/>
<path d="M20.03 13.9999C20.0175 13.7699 19.645 13.6924 19.385 13.7774C19.0425 13.8874 19.1425 14.2299 19.335 14.2874C19.6775 14.3924 20.0425 14.2274 20.03 13.9999ZM20.7825 14.9599C20.6025 14.8174 20.2975 15.0449 20.19 15.2974C20.0475 15.6274 20.37 15.7799 20.54 15.6724C20.845 15.4824 20.96 15.0999 20.7825 14.9599Z" fill="#F7CA76"/>
<path d="M17.215 19.0624C17.215 19.0624 17.2825 18.6099 16.9525 17.9549C16.81 17.6724 16.2475 17.1099 16.67 16.6249C17.0925 16.1424 18.5225 16.4449 18.985 16.5449C19.4475 16.6449 20.1925 16.6249 20.475 16.3424C20.7575 16.0599 20.9575 14.8924 21.985 14.6099C23.045 14.3199 23.545 15.2549 23.9775 15.6374C24.32 15.9399 24.8225 16.0599 25.5275 15.8174C26.2325 15.5749 26.03 16.5024 26.03 16.5024L25.205 18.3349L17.215 19.0624ZM4.47249 16.4874C4.47249 16.4874 3.72749 15.0574 3.24499 12.8624C2.76249 10.6674 2.79999 9.94743 3.30499 9.78243C4.16999 9.49993 4.75499 10.5474 5.05749 10.4874C5.35999 10.4274 5.41999 9.15743 6.30499 8.95743C7.18999 8.75493 7.53249 9.56243 7.97499 10.2874C8.41749 11.0124 9.24249 12.9449 9.24249 12.9449C9.24249 12.9449 10.0275 12.5824 10.7125 12.9449C11.3975 13.3074 12.0625 14.3949 12.3425 15.1599C12.625 15.9249 12.9 16.5974 12.9 16.5974C12.9 16.5974 13.8675 16.7799 14.7575 17.3149C15.765 17.9199 16.2475 19.1074 16.2475 19.1074L11.2975 19.4249C11.2975 19.4249 5.29749 17.2699 5.23749 17.1699C5.17499 17.0699 4.40999 16.4049 4.47249 16.4874Z" fill="#86C82C"/>
<path d="M5.2575 17.2724C5.2575 17.2724 4.955 16.5474 5.055 15.6224C5.155 14.6974 5.5875 14.1074 6.3125 14.1074C6.8775 14.1074 7.8525 14.4749 8.8 15.8024C9.7475 17.1299 9.8675 18.3399 9.8675 18.3399L5.86 17.8174L5.2575 17.2724Z" fill="#2D792A"/>
<path d="M5.5175 17.0101C5.5175 17.0101 5.125 15.4126 5.6175 15.0376C5.96 14.7751 6.4825 14.8576 7.43 15.9026C8.51 17.0976 8.7375 18.1376 8.7375 18.1376L5.5175 17.0101Z" fill="#E7FCAE"/>
<path d="M10.3775 18.53L10.84 18.57C10.84 18.57 11.1025 17.3425 12.1275 16.8375C13.115 16.355 14.16 16.7575 14.16 16.7575L14.32 16.1725L13.2325 15.73L11.7625 16.0325C11.7625 16.0325 10.4325 17.24 10.4325 17.3C10.4325 17.36 10.3775 18.47 10.3775 18.53Z" fill="white"/>
<path d="M9.57501 18.7075C9.57501 18.6475 9.69751 16.9575 11.125 16.01C12.9375 14.8075 14.4375 15.83 14.4375 15.83L14.25 16.4075C14.25 16.4075 12.69 15.725 11.4875 16.755C10.5 17.6 10.28 18.87 10.28 18.87L9.57501 18.7075Z" fill="#D2608C"/>
<path d="M16.8625 27.1675C25.555 27.14 28.505 20.1175 29.2075 17.5175C29.6675 15.815 29.8325 14.2675 29.8325 14.2675L26.7825 17.7025C26.7825 17.7025 17.2175 19.5375 16.8975 19.5375C16.5775 19.5375 11.2925 19.1125 11.2925 19.1125L5.86251 17.815L2.14001 14.21C2.14001 14.21 2.21001 16.4525 2.81251 18.155C3.27751 19.4675 5.97001 27.2025 16.8625 27.1675Z" fill="#F6F6F6"/>
<path d="M16.01 20.1075C20.16 20.16 26.225 19.08 28.4975 16.8075C29.9525 15.3525 29.845 14.04 29.845 14.04C29.845 14.04 27.22 18.9975 15.9725 18.83C6.43251 18.6875 2.13251 14.1975 2.13251 14.1975C2.13251 14.1975 2.38751 15.7425 3.55751 16.7025C6.32501 18.965 10.475 20.035 16.01 20.1075ZM5.11501 19.705C4.62751 20.1625 5.15501 21.325 6.34501 22.3725C7.53501 23.42 8.72501 24.26 9.32001 23.665C9.93751 23.0475 8.48001 21.5725 7.65751 20.855C6.83501 20.1375 5.75001 19.11 5.11501 19.705Z" fill="white"/>
</svg>
