<svg width="32" height="32" viewBox="0 0 32 32" fill="none" xmlns="http://www.w3.org/2000/svg">
<path d="M27.813 16.7749C26.913 17.6849 26.353 18.8849 26.243 20.1549C26.023 22.6949 24.913 25.0849 23.113 26.8849C18.953 31.0349 12.193 31.0349 8.04297 26.8849L4.89297 23.7349L6.49297 22.1449C6.10297 18.9949 7.11297 15.6949 9.52297 13.2849C11.323 11.4849 13.713 10.3749 16.253 10.1549C16.3315 10.1481 16.4099 10.1394 16.488 10.1289C16.3002 9.5156 16.2831 8.86273 16.4385 8.24044C16.5939 7.61815 16.916 7.04996 17.37 6.59691C18.0049 5.96367 18.8559 5.59416 19.7521 5.56262C20.6482 5.53109 21.5231 5.83986 22.201 6.42691L24.843 3.78491L27.993 6.93491C30.653 9.59491 30.653 13.9349 27.993 16.5949L27.813 16.7749Z" fill="#FBB8AB"/>
<path fill-rule="evenodd" clip-rule="evenodd" d="M24.873 13.835C23.973 14.745 23.413 15.945 23.303 17.215C23.0841 19.7576 21.9799 22.1429 20.183 23.955C16.023 28.105 9.26299 28.115 5.11299 23.955C0.962988 19.795 0.962988 13.035 5.11299 8.885C6.91299 7.085 9.30299 5.975 11.833 5.745C13.1087 5.63344 14.3048 5.07784 15.213 4.175L15.393 3.995C18.053 1.335 22.393 1.335 25.053 3.995C27.713 6.655 27.713 10.995 25.053 13.655L24.873 13.835ZM18.663 7.885C17.993 8.555 17.993 9.635 18.663 10.305C19.333 10.975 20.423 10.975 21.093 10.315C21.763 9.645 21.763 8.555 21.093 7.885C20.7705 7.56319 20.3336 7.38245 19.878 7.38245C19.4224 7.38245 18.9855 7.56319 18.663 7.885Z" fill="#F4F4F4"/>
<path d="M7.67599 8.7941C7.01999 9.3141 7.11899 10.3721 7.90199 10.7351L12.822 13.0651C12.8273 13.0658 12.8327 13.0674 12.838 13.0701C12.8433 13.0728 12.848 13.0744 12.852 13.0751C13.822 13.5251 14.962 13.3551 15.722 12.5951L16.462 11.8551C16.932 11.3851 17.112 10.6951 16.922 10.0651C16.7587 9.52304 16.7449 8.9469 16.8822 8.39767C17.0195 7.84843 17.3028 7.34654 17.702 6.9451C18.0032 6.64225 18.3635 6.40469 18.7605 6.24721C19.1575 6.08974 19.5828 6.01573 20.0096 6.0298C20.4365 6.04388 20.8559 6.14573 21.2417 6.32901C21.6275 6.51229 21.9714 6.77308 22.252 7.0951C23.282 8.2551 23.282 10.0351 22.252 11.2051C21.402 12.1651 20.122 12.4751 19.002 12.1351C18.6895 12.0385 18.3565 12.0293 18.0391 12.1087C17.7218 12.188 17.4323 12.3528 17.202 12.5851L16.472 13.3151C15.712 14.0751 15.542 15.2251 16.002 16.1951C16.002 16.1998 16.004 16.2031 16.008 16.2051C16.0107 16.2071 16.0123 16.2104 16.013 16.2151L18.353 21.1251C18.4348 21.2983 18.5587 21.4483 18.7134 21.5613C18.868 21.6744 19.0485 21.7469 19.2384 21.7724C19.4283 21.7978 19.6215 21.7753 19.8004 21.707C19.9794 21.6387 20.1384 21.5266 20.263 21.3811C21.1075 20.0945 21.6194 18.6183 21.753 17.0851C21.893 15.4451 22.613 13.9051 23.773 12.7351L23.953 12.5551C24.4522 12.0569 24.8462 11.4635 25.1114 10.81C25.3767 10.1565 25.5078 9.4563 25.497 8.7511C25.4868 8.00189 25.3163 7.26354 24.997 6.58568C24.6778 5.90781 24.2171 5.30614 23.646 4.8211C21.562 3.0491 18.418 3.2031 16.456 5.1511L16.323 5.2851C15.1561 6.44967 13.6156 7.16502 11.973 7.3051C10.4395 7.43819 8.96303 7.94982 7.67599 8.7941Z" fill="#F8312F"/>
<path d="M4.94799 11.566C5.26599 11.096 5.87699 10.931 6.39199 11.165L12.402 13.985C13.572 14.535 14.522 15.485 15.082 16.645L17.932 22.625C18.182 23.155 17.992 23.785 17.502 24.095C16.5786 24.6836 15.5555 25.0987 14.483 25.32C13.0074 25.6252 11.479 25.5589 10.0354 25.1268C8.59186 24.6948 7.27832 23.9107 6.21299 22.845C3.15099 19.784 2.72999 15.079 4.94799 11.565" fill="#F8312F"/>
</svg>
