<svg width="32" height="32" viewBox="0 0 32 32" fill="none" xmlns="http://www.w3.org/2000/svg">
<path opacity="0.7" d="M13.3275 3.59009C15.7575 3.59009 18.2225 5.24009 18.2225 7.67009C18.2225 10.1001 15.755 12.3851 13.3275 12.3851C12.02 12.3851 10.3975 11.9876 9.59001 11.0801C9.59001 11.0801 8.86251 10.1201 8.92751 7.98759C9.00501 5.56009 10.9 3.59009 13.3275 3.59009Z" fill="url(#paint0_radial_133_1963)"/>
<path opacity="0.7" d="M8.5725 13.4874C10.199 13.4874 11.5175 12.1689 11.5175 10.5424C11.5175 8.91593 10.199 7.59741 8.5725 7.59741C6.94602 7.59741 5.6275 8.91593 5.6275 10.5424C5.6275 12.1689 6.94602 13.4874 8.5725 13.4874Z" fill="url(#paint1_radial_133_1963)"/>
<path d="M2.98001 13.5776C6.46751 10.1626 27.665 8.44259 29.1725 10.2351C30.0375 11.2626 30.9525 12.9826 30.995 14.2476C31.065 16.3801 30.2325 18.0376 29.0425 19.1151C28.3975 19.6976 27.1925 20.6226 26.4675 21.1001C23.2875 23.1976 19.94 25.4501 17.0925 27.0376C14.4075 28.5351 12.1025 28.9301 9.85251 27.5976C9.16001 27.1876 5.64001 25.1326 3.51501 23.3626C1.89251 22.0151 0.950011 19.3951 1.00251 17.6601C1.03751 16.4426 1.81251 14.7201 2.98001 13.5776Z" fill="#F47FAC"/>
<path d="M3.8625 12.86C7.9475 10.19 15.9725 5.65249 17.4375 4.97999C18.6525 4.42249 20.1825 4.20499 22.8525 5.52499C22.8525 5.52499 25.3275 6.72999 27.165 8.18499C28.93 9.58249 30.515 11.1925 28.9075 13.21C28.3675 13.89 27.0575 14.7175 26.3325 15.195C23.1525 17.2925 19.805 19.545 16.9575 21.1325C14.2725 22.63 11.9675 23.025 9.71749 21.6925C9.02499 21.2825 5.62 19.0775 3.38 17.4575C0.864995 15.64 2.5175 13.74 3.8625 12.86Z" fill="#F47FAC"/>
<path d="M4.55751 12.885C8.38001 10.3875 15.9625 6.15752 17.335 5.53002C18.4725 5.01002 19.905 4.80502 22.4025 6.04002C22.4025 6.04002 24.7175 7.16752 26.4375 8.52752C28.09 9.83502 29.5725 11.34 28.0675 13.23C27.5625 13.8675 26.335 14.64 25.6575 15.0875C22.6825 17.05 19.55 19.1575 16.885 20.6425C14.3725 22.0425 12.215 22.4125 10.11 21.1675C9.46251 20.7825 6.27501 18.72 4.18001 17.205C1.82501 15.505 3.30001 13.705 4.55751 12.885Z" fill="#FFB6C1"/>
<path d="M2.01251 17.7875C1.81751 18.075 1.76001 18.4725 1.75251 18.8375C1.69251 21.79 5.32 23.89 7.4725 25.395C8.5425 26.145 9.6325 26.7725 10.985 26.7475C11.495 26.7375 12.025 26.5725 12.37 26.195C12.845 25.6725 12.865 24.89 12.8325 24.1825C12.8175 23.8725 12.7875 23.535 12.5725 23.3125C12.4325 23.17 12.235 23.0975 12.0475 23.0275C10.215 22.3425 6.2925 19.6575 4.45 18.315C3.795 17.84 2.7675 16.6725 2.01251 17.7875ZM28.7125 13.4025C28.505 13.7025 28.23 13.975 28.1475 14.33C28.035 14.82 28.325 15.3025 28.4475 15.79C28.605 16.425 28.4825 17.1175 28.7225 17.725C28.765 17.8325 28.83 17.945 28.9375 17.9875C29.11 18.0525 29.2875 17.91 29.405 17.7675C29.9825 17.0725 30.455 15.875 30.47 14.9725C30.48 14.3025 30.2375 13.0475 29.8025 12.5C29.275 11.8375 28.975 13.02 28.7125 13.4025Z" fill="#FF97AB"/>
<path d="M5.3575 21.3074C5.2475 21.0399 5.015 20.8374 4.7675 20.6899C4.7075 20.6549 4.645 20.6199 4.6025 20.5649C4.4975 20.4324 4.54 20.2449 4.535 20.0774C4.5225 19.7174 4.2375 19.3874 3.8825 19.3224C3.7125 19.2924 3.515 19.3224 3.405 19.4574C3.125 19.8074 3.375 20.2874 3.56 20.4499C3.6725 20.5474 3.9725 20.6049 3.9175 20.8699C3.9075 20.9174 3.885 20.9599 3.865 21.0024C3.77441 21.1956 3.75752 21.4152 3.8175 21.6199C3.93 21.9974 4.2825 22.2074 4.66 22.2424C4.8475 22.2599 5.05 22.2249 5.195 22.1074C5.425 21.9199 5.4675 21.5749 5.3575 21.3074Z" fill="#FFB6C1"/>
<path d="M13.8025 25.8576C14.05 25.9076 14.285 26.1051 14.2975 26.3576C14.3075 26.5476 14.1925 26.7301 14.04 26.8426C13.8875 26.9576 13.1775 27.4551 12.4625 26.9801C12.35 26.9051 12.29 26.7701 12.2025 26.6651C12.115 26.5601 11.995 26.4676 11.86 26.4701C11.235 26.4776 11.5775 25.7001 12.1175 25.9376C12.325 26.0301 12.485 26.1151 12.72 26.0676C13.09 25.9951 13.4075 25.7776 13.8025 25.8576ZM16.1075 23.3726C15.875 23.5726 15.6975 23.8376 15.6025 24.1276C15.56 24.2576 15.5375 24.4151 15.6275 24.5176C15.7025 24.6051 15.8325 24.6226 15.9475 24.6151C16.285 24.5976 16.605 24.4351 16.865 24.2201C17.1125 24.0151 17.5375 23.4451 17.1375 23.1726C16.845 22.9751 16.3375 23.1751 16.1075 23.3726Z" fill="#FF97AB"/>
<path d="M13.3275 3.59009C15.7575 3.59009 18.2225 5.24009 18.2225 7.67009C18.2225 10.1001 15.755 12.3851 13.3275 12.3851C12.02 12.3851 10.3975 11.9876 9.59001 11.0801C9.59001 11.0801 8.86251 10.1201 8.92751 7.98759C9.00501 5.56009 10.9 3.59009 13.3275 3.59009Z" fill="url(#paint2_radial_133_1963)"/>
<path d="M19.0925 23.8101C19.71 22.0401 21.49 22.3851 21.49 22.3851C23.1375 22.5426 23.855 25.2151 23.855 25.2151C23.855 25.2151 22.425 27.1776 20.1775 26.4276C19.0475 26.0476 18.6725 25.0151 19.0925 23.8101Z" fill="url(#paint3_radial_133_1963)"/>
<path d="M21.51 22.3851C21.9575 19.7826 23.935 18.3801 26.3075 18.6401C27.5525 18.7776 28.9 20.7976 28.165 23.0601C27.535 24.9976 25.26 25.5351 23.8575 25.2126C21.3875 24.6501 21.51 22.3851 21.51 22.3851Z" fill="url(#paint4_radial_133_1963)"/>
<path d="M25.3125 17.2951C26.4336 17.2951 27.3425 16.3862 27.3425 15.2651C27.3425 14.144 26.4336 13.2351 25.3125 13.2351C24.1914 13.2351 23.2825 14.144 23.2825 15.2651C23.2825 16.3862 24.1914 17.2951 25.3125 17.2951Z" fill="url(#paint5_radial_133_1963)"/>
<path opacity="0.9" d="M14.41 4.54992C15.0625 4.79742 15.6325 5.30492 15.87 5.96242C16.0075 6.34492 15.995 6.84492 15.66 7.07492C15.45 7.21742 15.04 7.30992 14.215 6.69992C12.9175 5.73992 12.555 6.57492 11.3975 6.29242C10.5 6.07492 10.9075 5.33992 11.0675 5.15492C11.85 4.24742 13.36 4.14992 14.41 4.54992ZM6.47751 10.1749C6.58501 10.2399 6.72751 10.2049 6.83501 10.1374C7.08001 9.98742 6.99751 9.57492 7.48751 9.12492C7.57751 9.04242 7.91001 8.71742 7.69501 8.49992C7.41251 8.21492 6.88751 8.42742 6.55501 8.86992C6.18251 9.36992 6.13501 9.96992 6.47751 10.1749Z" fill="white"/>
<path d="M17.255 10.2699C17.255 10.2699 16.5275 9.48994 16.6675 7.59744C16.77 6.21744 17.58 5.58994 17.58 5.58994C17.58 5.58994 19.865 5.23244 20.995 6.45994C21.9 7.44244 21.7 8.71744 20.6 9.53244C18.92 10.7749 17.255 10.2699 17.255 10.2699Z" fill="url(#paint6_radial_133_1963)"/>
<path d="M13.55 12.1526C13.7025 12.9776 13.18 14.0926 12.215 14.6501C11.0575 15.3176 8.96249 14.9701 8.42499 13.9726C7.99749 13.1776 7.85749 10.7551 9.89999 9.99506C12.6575 8.96256 13.5175 11.9876 13.55 12.1526Z" fill="url(#paint7_radial_133_1963)"/>
<path d="M15.81 13.8175C14.6425 15.0725 12.875 14.11 12.875 14.11C11.8475 12.5075 12.83 10.725 12.83 10.725C12.83 10.725 15.325 10.0475 16.18 11.3625C16.1825 11.365 17.02 12.52 15.81 13.8175Z" fill="url(#paint8_radial_133_1963)"/>
<path opacity="0.9" d="M10.67 11.1725C10.6625 11.3325 10.5675 11.4725 10.4775 11.6025L9.87999 12.455C9.78749 12.5875 9.50999 13.05 9.10749 12.8925C8.97499 12.84 8.88999 12.71 8.84249 12.575C8.65999 12.0625 8.90999 11.225 9.38499 10.8175C9.85249 10.415 10.6975 10.555 10.67 11.1725ZM25.315 13.855C25.4575 13.925 25.5625 14.085 25.53 14.2425C25.4925 14.43 25.2925 14.53 25.135 14.64C24.985 14.7425 24.855 14.87 24.7525 15.02C24.685 15.1175 24.6275 15.225 24.5475 15.315C24.4675 15.405 24.3575 15.4775 24.2375 15.475C24.125 15.4725 24.02 15.405 23.9575 15.315C23.4775 14.61 24.61 13.5075 25.315 13.855Z" fill="white"/>
<path opacity="0.43" d="M21.51 22.385C21.51 22.385 22.42 22.4325 23.07 23.505C23.64 24.4425 23.855 25.215 23.855 25.215C23.855 25.215 22.6825 25.0075 22.0325 24.0775C21.465 23.2625 21.51 22.385 21.51 22.385Z" fill="#80DEEA"/>
<path opacity="0.5" d="M9.06 9.67006C9.06 9.67006 8.8425 8.63006 8.9575 7.62256C8.9575 7.62256 9.5475 7.68006 10.04 7.98756C10.6175 8.35006 10.8225 8.64006 10.8225 8.64006L9.06 9.67006Z" fill="#80DEEA"/>
<path opacity="0.8" d="M17.7525 6.33251C17.39 6.60001 17.125 6.91751 17.0975 7.36751C17.0875 7.51751 17.1125 7.68501 17.225 7.78251C17.6425 8.13501 18.0225 7.40501 18.695 7.31001C19.8775 7.14501 19.69 6.43251 19.105 6.18751C18.715 6.02251 18.225 5.98501 17.7525 6.33251ZM25.42 19.36C26.1375 19.6625 25.855 20.29 25.6125 20.3575C24.7825 20.5925 24.645 20.9675 24.435 21.13C24.225 21.295 23.99 21.4425 23.7275 21.485C23.465 21.5275 23.165 21.44 23.02 21.2175C22.7025 20.73 23.2225 20.09 23.5775 19.77C24.07 19.325 24.7925 19.095 25.42 19.36ZM21.23 22.86C22.295 22.86 22.45 23.485 22.4125 23.615C22.295 24.025 21.825 23.8725 21.6825 23.86C21.46 23.8425 21.235 23.86 21.0175 23.9125C20.855 23.9525 20.695 24.0125 20.5275 24.0225C20.1675 24.0475 19.85 23.725 20.0525 23.3775C20.2375 23.06 20.9025 22.86 21.23 22.86Z" fill="white"/>
<defs>
<radialGradient id="paint0_radial_133_1963" cx="0" cy="0" r="1" gradientUnits="userSpaceOnUse" gradientTransform="translate(13.804 8.77292) scale(5.59575 5.64555)">
<stop offset="0.522" stop-color="#80DEEA" stop-opacity="0"/>
<stop offset="1" stop-color="#80DEEA"/>
</radialGradient>
<radialGradient id="paint1_radial_133_1963" cx="0" cy="0" r="1" gradientUnits="userSpaceOnUse" gradientTransform="translate(8.95225 10.939) scale(2.89125 2.91698)">
<stop offset="0.545" stop-color="#80DEEA" stop-opacity="0"/>
<stop offset="1" stop-color="#80DEEA"/>
</radialGradient>
<radialGradient id="paint2_radial_133_1963" cx="0" cy="0" r="1" gradientUnits="userSpaceOnUse" gradientTransform="translate(12.592 6.56098) scale(5.34175 5.38929)">
<stop offset="0.601" stop-color="white" stop-opacity="0"/>
<stop offset="1" stop-color="white" stop-opacity="0.8"/>
</radialGradient>
<radialGradient id="paint3_radial_133_1963" cx="0" cy="0" r="1" gradientUnits="userSpaceOnUse" gradientTransform="translate(21.391 24.4768) scale(2.29875)">
<stop offset="0.376" stop-color="#80DEEA" stop-opacity="0"/>
<stop offset="1" stop-color="#80DEEA" stop-opacity="0.8"/>
</radialGradient>
<radialGradient id="paint4_radial_133_1963" cx="0" cy="0" r="1" gradientUnits="userSpaceOnUse" gradientTransform="translate(24.779 21.7581) scale(3.73275)">
<stop offset="0.376" stop-color="#80DEEA" stop-opacity="0"/>
<stop offset="1" stop-color="#80DEEA" stop-opacity="0.8"/>
</radialGradient>
<radialGradient id="paint5_radial_133_1963" cx="0" cy="0" r="1" gradientUnits="userSpaceOnUse" gradientTransform="translate(25.3463 15.2719) scale(1.94625)">
<stop offset="0.557" stop-color="white" stop-opacity="0"/>
<stop offset="1" stop-color="white" stop-opacity="0.8"/>
</radialGradient>
<radialGradient id="paint6_radial_133_1963" cx="0" cy="0" r="1" gradientUnits="userSpaceOnUse" gradientTransform="translate(18.961 7.70905) scale(2.389 2.41026)">
<stop offset="0.557" stop-color="white" stop-opacity="0"/>
<stop offset="1" stop-color="white" stop-opacity="0.8"/>
</radialGradient>
<radialGradient id="paint7_radial_133_1963" cx="0" cy="0" r="1" gradientTransform="matrix(2.55782 -1.47685 1.19912 2.0769 10.815 12.3982)" gradientUnits="userSpaceOnUse">
<stop offset="0.557" stop-color="white" stop-opacity="0"/>
<stop offset="1" stop-color="white" stop-opacity="0.8"/>
</radialGradient>
<radialGradient id="paint8_radial_133_1963" cx="0" cy="0" r="1" gradientUnits="userSpaceOnUse" gradientTransform="translate(14.385 12.4967) scale(1.95625 1.97366)">
<stop offset="0.557" stop-color="white" stop-opacity="0"/>
<stop offset="1" stop-color="white" stop-opacity="0.8"/>
</radialGradient>
</defs>
</svg>
