<svg width="32" height="32" viewBox="0 0 32 32" fill="none" xmlns="http://www.w3.org/2000/svg">
<path d="M16 30.2221C24.8366 30.2221 32 26.2424 32 21.3332C32 16.424 24.8366 12.4443 16 12.4443C7.16344 12.4443 0 16.424 0 21.3332C0 26.2424 7.16344 30.2221 16 30.2221Z" fill="#939598"/>
<path d="M16 28.4445C24.8366 28.4445 32 24.4648 32 19.5556C32 14.6464 24.8366 10.6667 16 10.6667C7.16344 10.6667 0 14.6464 0 19.5556C0 24.4648 7.16344 28.4445 16 28.4445Z" fill="#F1F2F2"/>
<path d="M16 25.975C23.2656 25.975 29.1556 22.9461 29.1556 19.2097C29.1556 15.4733 23.2656 12.4443 16 12.4443C8.73439 12.4443 2.84445 15.4733 2.84445 19.2097C2.84445 22.9461 8.73439 25.975 16 25.975Z" fill="#FFCC4D"/>
<path d="M9.77779 23.9999C9.54204 23.9999 9.31595 23.9063 9.14925 23.7396C8.98255 23.5729 8.8889 23.3468 8.8889 23.1111C8.8889 22.8753 8.98255 22.6492 9.14925 22.4825C9.31595 22.3158 9.54204 22.2222 9.77779 22.2222C11.4649 22.2222 12.5173 21.2577 12.5991 20.5911C12.68 19.9368 11.7458 19.6302 11.3396 19.5288C10.5342 19.3288 9.93512 19.5582 9.24357 19.8266C8.29423 20.1946 6.99379 20.6959 5.59379 19.2951C4.98134 18.6835 4.82223 17.8693 5.15646 17.0613C5.80801 15.4888 8.21779 14.2222 9.77779 14.2222C10.0135 14.2222 10.2396 14.3158 10.4063 14.4825C10.573 14.6492 10.6667 14.8753 10.6667 15.1111C10.6667 15.3468 10.573 15.5729 10.4063 15.7396C10.2396 15.9063 10.0135 15.9999 9.77779 15.9999C8.78668 15.9999 7.11557 16.9768 6.79912 17.7422C6.73334 17.9004 6.76001 17.9466 6.85068 18.0382C7.40979 18.5964 7.67557 18.5253 8.60268 18.1688C9.3689 17.8719 10.4178 17.4666 11.7707 17.8053C13.8898 18.3351 14.4996 19.7039 14.3636 20.8088C14.1707 22.3768 12.4027 23.9999 9.77779 23.9999ZM15.1111 24.8888C14.8754 24.8888 14.6493 24.7952 14.4826 24.6285C14.3159 24.4618 14.2222 24.2357 14.2222 23.9999C14.2222 23.7642 14.3159 23.5381 14.4826 23.3714C14.6493 23.2047 14.8754 23.1111 15.1111 23.1111C20.1751 23.1111 23.8516 22.0026 26.0382 19.8159C26.2049 19.6493 26.431 19.5556 26.6667 19.5556C26.9024 19.5556 27.1284 19.6493 27.2951 19.8159C27.4618 19.9826 27.5554 20.2087 27.5554 20.4444C27.5554 20.6801 27.4618 20.9062 27.2951 21.0728C24.7627 23.6053 20.664 24.8888 15.1111 24.8888Z" fill="#FFE8B6"/>
<path d="M18.9769 21.4755C18.4996 21.4755 18.0267 21.4221 17.5627 21.3057C17.08 21.1857 15.6124 20.8186 15.5662 19.6319C15.5324 18.743 16.1538 17.7013 20.8444 16.1146C20.3333 15.6977 19.104 15.111 17.7778 15.111C15.544 15.111 14.4027 15.2986 13.9618 15.7395C13.8793 15.822 13.7813 15.8875 13.6734 15.9321C13.5656 15.9768 13.45 15.9998 13.3333 15.9998C13.2166 15.9998 13.1011 15.9768 12.9932 15.9321C12.8854 15.8875 12.7874 15.822 12.7049 15.7395C12.6224 15.6569 12.5569 15.559 12.5122 15.4511C12.4676 15.3433 12.4446 15.2277 12.4446 15.111C12.4446 14.9943 12.4676 14.8787 12.5122 14.7709C12.5569 14.6631 12.6224 14.5651 12.7049 14.4826C13.5538 13.6337 14.8809 13.3333 17.7778 13.3333C19.9076 13.3333 22.5742 14.5181 22.8231 16.047C22.9182 16.6355 22.6516 17.3857 21.6151 17.7315C19.3191 18.4968 18.1298 19.1084 17.6142 19.471C17.7132 19.506 17.8397 19.543 17.9938 19.5821C20.8658 20.2968 24.5022 17.479 24.8987 16.7555C24.9319 16.5334 25.0479 16.3322 25.2233 16.1922C25.3988 16.0521 25.6208 15.9837 25.8446 16.0006C26.0685 16.0175 26.2777 16.1184 26.4302 16.2832C26.5826 16.4479 26.6671 16.6643 26.6667 16.8888C26.6667 17.5164 26.1022 18.2755 24.9893 19.1439C23.44 20.3537 21.1769 21.4746 18.9769 21.4755Z" fill="#FFE8B6"/>
<path d="M24 18.2222C24 20.4311 22.1964 23.1111 17.7778 23.1111C13.3591 23.1111 14.2222 21.3333 7.1111 18.6666C4.11021 17.5413 11.5813 14.2222 16 14.2222C20.4187 14.2222 24 16.0133 24 18.2222Z" fill="#DD2E44"/>
<path d="M14.2222 21.3334C14.0463 21.3338 13.8741 21.2819 13.7277 21.1843C13.5813 21.0867 13.4672 20.9478 13.3998 20.7852C13.3325 20.6226 13.315 20.4437 13.3495 20.2711C13.3841 20.0986 13.4691 19.9402 13.5938 19.8161C13.8436 19.5449 13.6933 19.3947 13.5938 19.2952C13.0978 18.7992 11.6044 18.7476 10.1751 19.4623C10.0707 19.5145 9.95702 19.5457 9.84056 19.554C9.7241 19.5623 9.60715 19.5476 9.49638 19.5107C9.38561 19.4738 9.28319 19.4154 9.19497 19.3389C9.10675 19.2625 9.03446 19.1694 8.98222 19.0649C8.92999 18.9605 8.89883 18.8468 8.89053 18.7304C8.88222 18.6139 8.89694 18.497 8.93384 18.3862C8.97073 18.2754 9.02908 18.173 9.10556 18.0848C9.18204 17.9966 9.27514 17.9243 9.37956 17.8721C11.1369 16.9938 13.5804 16.7681 14.8498 18.0392C15.9627 19.1521 15.4596 20.4641 14.8498 21.0738C14.6832 21.24 14.4575 21.3333 14.2222 21.3334ZM17.7778 17.7778C15.632 17.7778 14.5022 16.6481 13.5938 15.7396C13.5113 15.6571 13.4458 15.5591 13.4011 15.4513C13.3565 15.3434 13.3335 15.2279 13.3335 15.1112C13.3335 14.9945 13.3565 14.8789 13.4011 14.7711C13.4458 14.6632 13.5113 14.5653 13.5938 14.4827C13.6763 14.4002 13.7743 14.3347 13.8821 14.2901C13.9899 14.2454 14.1055 14.2224 14.2222 14.2224C14.3389 14.2224 14.4545 14.2454 14.5623 14.2901C14.6702 14.3347 14.7681 14.4002 14.8507 14.4827C15.6987 15.3307 16.368 16.0001 17.7778 16.0001C18.4649 16.0001 20.0764 16.0001 20.7049 15.3716C20.7874 15.2891 20.8854 15.2236 20.9932 15.179C21.1011 15.1343 21.2166 15.1113 21.3333 15.1113C21.45 15.1113 21.5656 15.1343 21.6734 15.179C21.7813 15.2236 21.8793 15.2891 21.9618 15.3716C22.0443 15.4541 22.1098 15.5521 22.1544 15.6599C22.1991 15.7678 22.2221 15.8833 22.2221 16.0001C22.2221 16.1168 22.1991 16.2323 22.1544 16.3402C22.1098 16.448 22.0443 16.546 21.9618 16.6285C20.8124 17.7778 18.7627 17.7778 17.7778 17.7778ZM17.7778 21.3334C17.542 21.3334 17.3159 21.2397 17.1492 21.073C16.9825 20.9063 16.8889 20.6802 16.8889 20.4445C16.8889 20.2088 16.9825 19.9827 17.1492 19.816C17.3159 19.6493 17.542 19.5556 17.7778 19.5556C19.4196 19.5556 21.8204 18.7005 22.4827 18.0383C22.5652 17.9557 22.6632 17.8903 22.771 17.8456C22.8788 17.801 22.9944 17.778 23.1111 17.778C23.2278 17.778 23.3434 17.801 23.4512 17.8456C23.5591 17.8903 23.657 17.9557 23.7396 18.0383C23.8221 18.1208 23.8876 18.2188 23.9322 18.3266C23.9769 18.4344 23.9999 18.55 23.9999 18.6667C23.9999 18.7834 23.9769 18.899 23.9322 19.0068C23.8876 19.1147 23.8221 19.2126 23.7396 19.2952C22.592 20.4427 19.592 21.3334 17.7778 21.3334Z" fill="#EA596E"/>
<path d="M15.112 17.7778C14.9467 17.778 14.7845 17.7321 14.6439 17.6453C14.5032 17.5585 14.3895 17.4341 14.3156 17.2862C13.4276 15.5111 11.5805 11.8169 10.6729 4.55465C10.6554 4.43745 10.6616 4.31793 10.6909 4.20313C10.7203 4.08833 10.7724 3.98057 10.844 3.88617C10.9157 3.79178 11.0054 3.71266 11.1081 3.65348C11.2108 3.59429 11.3242 3.55623 11.4418 3.54153C11.5594 3.52683 11.6787 3.5358 11.7928 3.56789C11.9069 3.59998 12.0134 3.65456 12.1061 3.72842C12.1987 3.80227 12.2757 3.89391 12.3324 3.99794C12.3892 4.10198 12.4245 4.21631 12.4365 4.33421C13.3067 11.2942 15.0613 14.8044 15.9049 16.4915C15.9725 16.6269 16.0045 16.7773 15.9978 16.9284C15.991 17.0796 15.9458 17.2265 15.8664 17.3553C15.787 17.4841 15.6761 17.5905 15.544 17.6645C15.412 17.7384 15.2633 17.7774 15.112 17.7778Z" fill="#FFAC33"/>
<path d="M31.2222 9.81511L17.6755 5.81244C14.6969 1.09333 10.9502 1.85244 8.88887 1.77778C8.66665 1.76978 8.16087 1.97333 8.14843 2.33333C8.1351 2.68178 9.06043 2.63289 9.20265 2.63822C10.7182 2.69333 12.7093 2.79466 14.6533 4.848C12.2907 4.02489 8.66132 3.496 7.99999 3.55555C7.59287 3.59289 7.55554 3.88889 8.03732 4.11111C8.43287 4.29422 12.1013 5.57511 14.1173 6.19111C12.856 6.62578 11.1964 6.82666 8.39821 5.42666C7.95643 5.20622 7.33065 4.89422 7.1111 5.33333C6.89154 5.77244 7.56087 6.00266 7.99999 6.22222C9.91999 7.18222 11.0489 8.29511 12.2871 8.29511C13.7591 8.29511 14.824 7.84622 15.6578 7.496C15.9538 7.37155 16.2213 7.26222 16.4604 7.19111C16.4747 7.2 16.4853 7.21244 16.4995 7.22044L29.6595 13.08C30.0907 13.3156 31.0569 12.3769 31.2924 11.9467C31.528 11.5147 31.5413 10.0133 31.2222 9.81511Z" fill="#99AAB5"/>
<path d="M11.5556 16.8888C11.3198 16.8888 11.0938 16.7951 10.9271 16.6284C9.75823 15.4595 6.97512 8.74661 10.8613 3.88883C10.9342 3.79773 11.0244 3.72187 11.1266 3.66559C11.2288 3.60932 11.3411 3.57372 11.4571 3.56085C11.573 3.54797 11.6904 3.55806 11.8025 3.59055C11.9146 3.62303 12.0191 3.67727 12.1102 3.75017C12.2013 3.82306 12.2772 3.91319 12.3335 4.01541C12.3898 4.11762 12.4253 4.22992 12.4382 4.34589C12.4511 4.46186 12.441 4.57923 12.4085 4.6913C12.376 4.80337 12.3218 4.90795 12.2489 4.99906C9.00623 9.05328 11.5573 14.7439 12.1831 15.3706C12.3081 15.4947 12.3934 15.6531 12.4281 15.8257C12.4628 15.9983 12.4455 16.1773 12.3782 16.3401C12.3109 16.5028 12.1968 16.6418 12.0503 16.7395C11.9039 16.8373 11.7316 16.8892 11.5556 16.8888Z" fill="#FFAC33"/>
</svg>
