<svg width="32" height="32" viewBox="0 0 32 32" fill="none" xmlns="http://www.w3.org/2000/svg">
<path d="M29.1475 3.4624L21.335 9.3899C20.9925 10.0249 21.135 10.6374 21.3625 11.1099C21.49 11.3749 21.3325 11.6924 21.045 11.7599C19.785 12.0574 17.34 12.4224 16.3 13.4624C16.3 13.4624 2.84749 26.0749 2.13249 26.7349C1.41749 27.3949 1.02749 28.3374 1.41749 29.2799C1.63999 29.8199 2.18749 30.4199 2.89499 30.6674C4.32499 31.1674 5.07999 30.8449 6.44499 29.4799C6.44499 29.4799 20.35 16.0549 23.3875 13.1499C23.6625 12.8849 24.0075 12.7124 24.3775 12.6224C24.7475 12.5324 25.2775 12.3174 25.795 11.7974L29.6125 7.9549C31.22 6.3474 30.1075 4.4249 29.1475 3.4624Z" fill="#E65100"/>
<path d="M21.6325 10.7751C22.8675 12.0101 24.2275 11.1651 24.7 10.6926L29.135 6.25761C29.6075 5.78511 30.225 4.54261 29.145 3.46261C28.445 2.76261 27.2275 2.79011 26.4475 3.57011L22.015 8.00511C21.54 8.47761 20.8025 9.94261 21.6325 10.7751Z" fill="#FB8C00"/>
<path d="M26.445 1.53491L25.655 2.84491C25.655 2.84491 27.4875 4.44741 27.8675 4.74491C28.15 4.96491 28.4 4.94741 28.6025 4.74491C28.805 4.54241 28.805 4.21241 28.6025 4.00991C28.4 3.80741 26.445 1.53491 26.445 1.53491Z" fill="#69B6C9"/>
<path d="M22.8393 10.505L20.1893 7.85503L25.9525 2.09253L28.6025 4.74253L22.8393 10.505Z" fill="#69B6C9"/>
<path d="M21.04 7.45996L19.73 8.24996C19.73 8.24996 21.8225 10.1125 22.2025 10.41C22.485 10.63 22.735 10.6125 22.9375 10.41C23.14 10.2075 23.14 9.87746 22.9375 9.67496C22.735 9.46996 21.04 7.45996 21.04 7.45996Z" fill="#69B6C9"/>
<path d="M26.3225 2.13501L25.54 3.44251C25.54 3.44251 27.675 5.34751 28.0575 5.64501C28.34 5.86501 28.59 5.84751 28.7925 5.64501C28.995 5.44251 28.995 5.11251 28.7925 4.91001C28.59 4.70751 26.3225 2.13501 26.3225 2.13501Z" fill="#A5CEDA"/>
<path d="M25.545 3.26001L24.495 4.31001C24.495 4.31001 26.7175 6.30501 27.1 6.60001C27.3825 6.82001 27.6325 6.80251 27.835 6.60001C28.0375 6.39751 28.0375 6.06751 27.835 5.86501C27.6325 5.66251 25.545 3.26001 25.545 3.26001Z" fill="#A5CEDA"/>
<path d="M24.575 4.20508L23.525 5.25508C23.525 5.25508 25.7625 7.26258 26.1425 7.55758C26.425 7.77758 26.675 7.76008 26.8775 7.55758C27.08 7.35508 27.08 7.02508 26.8775 6.82258C26.675 6.62008 24.575 4.20508 24.575 4.20508Z" fill="#A5CEDA"/>
<path d="M23.4975 5.04248L22.4475 6.09248C22.4475 6.09248 24.805 8.21998 25.185 8.51498C25.4675 8.73498 25.7175 8.71748 25.92 8.51498C26.1225 8.31248 26.1225 7.98248 25.92 7.77998C25.7175 7.57748 23.4975 5.04248 23.4975 5.04248Z" fill="#A5CEDA"/>
<path d="M22.5425 6L21.4925 7.05C21.4925 7.05 23.85 9.1775 24.23 9.4725C24.5125 9.6925 24.7625 9.675 24.965 9.4725C25.1675 9.27 25.1675 8.94 24.965 8.7375C24.7625 8.535 22.5425 6 22.5425 6Z" fill="#A5CEDA"/>
<path d="M21.8125 7.18262L20.4 7.93512C20.4 7.93512 22.8925 10.1301 23.2725 10.4276C23.555 10.6476 23.805 10.6301 24.0075 10.4276C24.21 10.2251 24.21 9.89512 24.0075 9.69262C23.805 9.49012 21.8125 7.18262 21.8125 7.18262Z" fill="#A5CEDA"/>
<path d="M19.8325 7.36259C19.885 7.13259 19.655 6.71759 19.85 6.45759C20.0075 6.24759 20.1375 6.28509 20.2925 6.28509C20.5275 6.28509 20.7275 6.08509 20.7275 5.85009C20.7275 5.69759 20.7575 5.55009 20.8525 5.45509C20.9475 5.36009 21.095 5.33009 21.2475 5.33009C21.4825 5.33009 21.6825 5.13009 21.6825 4.89509C21.6825 4.74259 21.7125 4.59509 21.8075 4.50009C21.9025 4.40509 22.05 4.37509 22.2025 4.37509C22.4375 4.37509 22.6375 4.17509 22.6375 3.94009C22.6375 3.78759 22.6675 3.64009 22.7625 3.54509C22.8575 3.45009 23.005 3.42009 23.1575 3.42009C23.3925 3.42009 23.5925 3.22009 23.5925 2.98509C23.5925 2.83259 23.6225 2.68509 23.7175 2.59009C23.8125 2.49509 23.96 2.46509 24.1125 2.46509C24.3475 2.46509 24.5475 2.26509 24.5475 2.03009C24.5475 1.87759 24.58 1.66759 24.76 1.55509C25.0475 1.38009 25.355 1.60509 25.5825 1.60509C25.8225 1.60509 26.09 1.21759 26.395 1.50259C26.685 1.77259 26.3875 2.14009 26.4125 2.31509C26.435 2.47009 26.64 2.80759 26.4825 3.10759C26.36 3.34009 26.0875 3.41509 25.935 3.41759C25.7 3.41759 25.5 3.61759 25.5 3.85259C25.5 4.00509 25.47 4.15259 25.375 4.24759C25.28 4.34259 25.1325 4.37259 24.98 4.37259C24.745 4.37259 24.545 4.57259 24.545 4.80759C24.545 4.96009 24.515 5.10759 24.42 5.20259C24.325 5.29759 24.1775 5.32759 24.025 5.32759C23.79 5.32759 23.59 5.52759 23.59 5.76259C23.59 5.91509 23.56 6.06259 23.465 6.15759C23.37 6.25259 23.2225 6.28259 23.07 6.28259C22.835 6.28259 22.635 6.48259 22.635 6.71759C22.635 6.87009 22.605 7.01759 22.51 7.11259C22.415 7.20759 22.2675 7.23759 22.115 7.23759C21.88 7.23759 21.68 7.43759 21.68 7.67259C21.68 7.82509 21.62 8.04509 21.48 8.14259C21.0325 8.45509 20.725 8.02009 20.51 8.10009C20.3625 8.15509 19.9725 8.50009 19.6875 8.19259C19.375 7.85759 19.8075 7.48009 19.8325 7.36259Z" fill="url(#paint0_linear_135_1979)"/>
<path d="M1.7775 29.1774C2.805 30.2049 4.2425 29.3674 4.7575 28.8524C5.1575 28.4524 18.2175 15.5099 18.2175 15.5099C19.495 14.2324 19.94 13.8849 19.47 13.2224C19 12.5599 17.125 12.6399 16.085 13.6824C16.085 13.6824 2.945 25.9049 2.3775 26.4724C1.81 27.0399 0.914997 28.3149 1.7775 29.1774Z" fill="#FB8C00"/>
<defs>
<linearGradient id="paint0_linear_135_1979" x1="24.7662" y1="6.56484" x2="21.9742" y2="3.77284" gradientUnits="userSpaceOnUse">
<stop stop-color="#FAFAFA"/>
<stop offset="0.73" stop-color="#EEEEEE"/>
</linearGradient>
</defs>
</svg>
