<svg width="32" height="32" viewBox="0 0 32 32" fill="none" xmlns="http://www.w3.org/2000/svg">
<path d="M20.4627 1.97059V5.15992H11.536V1.97325C11.536 1.80374 11.6033 1.64116 11.723 1.52117C11.8427 1.40119 12.0052 1.33361 12.1747 1.33325H19.8253C19.9942 1.33395 20.1559 1.40133 20.2752 1.5207C20.3946 1.64007 20.462 1.80177 20.4627 1.97059Z" fill="#E3E3E3" stroke="#191919" stroke-linecap="round" stroke-linejoin="round"/>
<path d="M23.0133 13.448V29.7067C23.0133 30.9814 8.98666 30.9814 8.98666 29.7067V13.448C8.98666 10.8974 11.5373 7.70936 11.5373 6.43469V5.15869H20.4627V6.43469C20.4627 7.70936 23.0133 10.8974 23.0133 13.448Z" fill="#C2F3FF"/>
<path d="M16 23.0118C14.5974 23.0123 13.2177 22.656 11.9908 21.9763C10.7639 21.2966 9.73005 20.3159 8.98666 19.1265V29.7105C8.98666 30.9851 23.0133 30.9851 23.0133 29.7105V19.1265C22.2699 20.3159 21.2361 21.2966 20.0092 21.9763C18.7823 22.656 17.4026 23.0123 16 23.0118Z" fill="#66E1FF"/>
<path d="M23.0133 13.448V29.7067C23.0133 30.9814 8.98666 30.9814 8.98666 29.7067V13.448C8.98666 10.8974 11.5373 7.70936 11.5373 6.43469V5.15869H20.4627V6.43469C20.4627 7.70936 23.0133 10.8974 23.0133 13.448Z" stroke="#191919" stroke-linecap="round" stroke-linejoin="round"/>
</svg>
